<svg xmlns="http://www.w3.org/2000/svg" xmlns:xlink="http://www.w3.org/1999/xlink" width="60" zoomAndPan="magnify" viewBox="0 0 45 30.000001" height="40" preserveAspectRatio="xMidYMid meet" version="1.0"><defs><g/></defs><g fill="#ffffff" fill-opacity="1"><g transform="translate(9.100165, 21.330566)"><g><path d="M 15.375 -0.296875 C 15.40625 -0.234375 15.394531 -0.164062 15.34375 -0.09375 C 15.300781 -0.03125 15.238281 0 15.15625 0 L 11.78125 0 C 11.664062 0 11.59375 -0.046875 11.5625 -0.140625 L 7.6875 -11.0625 L 3.875 -0.140625 C 3.851562 -0.046875 3.769531 0 3.625 0 L 0.265625 0 C 0.148438 0 0.0703125 -0.03125 0.03125 -0.09375 C -0.0078125 -0.164062 -0.0078125 -0.234375 0.03125 -0.296875 L 7.4375 -19.4375 C 7.476562 -19.539062 7.5625 -19.59375 7.6875 -19.59375 C 7.820312 -19.59375 7.90625 -19.539062 7.9375 -19.4375 Z M 15.375 -0.296875 "/></g></g></g><g fill="#ffffff" fill-opacity="1"><g transform="translate(39.566609, 7.693975)"><g><path d="M -15.375 0.296875 C -15.40625 0.234375 -15.394531 0.164062 -15.34375 0.09375 C -15.300781 0.03125 -15.238281 0 -15.15625 0 L -11.78125 0 C -11.664062 0 -11.59375 0.046875 -11.5625 0.140625 L -7.6875 11.0625 L -3.875 0.140625 C -3.851562 0.046875 -3.769531 0 -3.625 0 L -0.265625 0 C -0.148438 0 -0.0703125 0.03125 -0.03125 0.09375 C 0.0078125 0.164062 0.0078125 0.234375 -0.03125 0.296875 L -7.4375 19.4375 C -7.476562 19.539062 -7.5625 19.59375 -7.6875 19.59375 C -7.820312 19.59375 -7.90625 19.539062 -7.9375 19.4375 Z M -15.375 0.296875 "/></g></g></g></svg>